<svg width="512" height="512" viewBox="0 0 512 512" fill="none" xmlns="http://www.w3.org/2000/svg">
  <rect width="512" height="512" fill="#F3EFE7"/>
  <rect x="20" y="20" width="472" height="472" fill="#F3EFE7" stroke="#4A4550" stroke-width="2"/>
  <defs>
    <pattern id="dotsDense" width="10" height="10" patternUnits="userSpaceOnUse">
      <circle cx="2" cy="2" r="1.4" fill="#6E6872"/>
      <circle cx="8" cy="2" r="1.4" fill="#6E6872"/>
      <circle cx="2" cy="8" r="1.4" fill="#6E6872"/>
      <circle cx="8" cy="8" r="1.4" fill="#6E6872"/>
    </pattern>
    <pattern id="dotsLight" width="12" height="12" patternUnits="userSpaceOnUse">
      <circle cx="3" cy="3" r="1.2" fill="#8B8490"/>
      <circle cx="9" cy="3" r="1.2" fill="#8B8490"/>
      <circle cx="3" cy="9" r="1.2" fill="#8B8490"/>
      <circle cx="9" cy="9" r="1.2" fill="#8B8490"/>
    </pattern>
    <pattern id="weave" width="20" height="20" patternUnits="userSpaceOnUse">
      <rect width="20" height="20" fill="#F6F2EA"/>
      <path d="M2 5H18M2 10H18M2 15H18M5 2V18M10 2V18M15 2V18" stroke="#D8D1C7" stroke-width="1"/>
    </pattern>
  </defs>
  <g stroke="#4A4550" stroke-width="2">
    <line x1="114.4" y1="20" x2="114.4" y2="492"/>
    <line x1="208.8" y1="20" x2="208.8" y2="492"/>
    <line x1="303.2" y1="20" x2="303.2" y2="492"/>
    <line x1="397.6" y1="20" x2="397.6" y2="492"/>
    <line x1="20" y1="114.4" x2="492" y2="114.4"/>
    <line x1="20" y1="208.8" x2="492" y2="208.8"/>
    <line x1="20" y1="303.2" x2="492" y2="303.2"/>
    <line x1="20" y1="397.6" x2="492" y2="397.6"/>
  </g>
  <rect x="20" y="20" width="94.4" height="94.4" fill="#A7A0A9"/>
  <rect x="114.4" y="20" width="94.4" height="94.4" fill="url(#weave)"/>
  <rect x="208.8" y="20" width="94.4" height="94.4" fill="#D9D1C8"/>
  <rect x="303.2" y="20" width="94.4" height="94.4" fill="url(#dotsLight)"/>
  <rect x="397.6" y="20" width="94.4" height="94.4" fill="#8F8993"/>
  <rect x="20" y="114.4" width="94.4" height="94.4" fill="url(#dotsLight)"/>
  <rect x="114.4" y="114.4" width="94.4" height="94.4" fill="#AFA9B2"/>
  <rect x="208.8" y="114.4" width="94.4" height="94.4" fill="url(#weave)"/>
  <rect x="303.2" y="114.4" width="94.4" height="94.4" fill="url(#dotsDense)"/>
  <rect x="397.6" y="114.4" width="94.4" height="94.4" fill="#C8C1BA"/>
  <rect x="20" y="208.8" width="94.4" height="94.4" fill="url(#weave)"/>
  <rect x="114.4" y="208.8" width="94.4" height="94.4" fill="#9C96A0"/>
  <rect x="208.8" y="208.8" width="94.4" height="94.4" fill="#B7B0B9"/>
  <rect x="303.2" y="208.8" width="94.4" height="94.4" fill="url(#weave)"/>
  <rect x="397.6" y="208.8" width="94.4" height="94.4" fill="#F3EFE7"/>
  <rect x="20" y="303.2" width="94.4" height="94.4" fill="#9A939C"/>
  <rect x="114.4" y="303.2" width="94.4" height="94.4" fill="url(#weave)"/>
  <rect x="208.8" y="303.2" width="94.4" height="94.4" fill="#D1CAC1"/>
  <rect x="303.2" y="303.2" width="94.4" height="94.4" fill="url(#dotsLight)"/>
  <rect x="397.6" y="303.2" width="94.4" height="94.4" fill="#99939C"/>
  <rect x="20" y="397.6" width="94.4" height="94.4" fill="#ACA6AF"/>
  <rect x="114.4" y="397.6" width="94.4" height="94.4" fill="url(#weave)"/>
  <rect x="208.8" y="397.6" width="94.4" height="94.4" fill="url(#dotsLight)"/>
  <rect x="303.2" y="397.6" width="94.4" height="94.4" fill="#D9D1C8"/>
  <rect x="397.6" y="397.6" width="94.4" height="94.4" fill="#A6A0A9"/>
  <g stroke="#4A4550" stroke-width="2" fill="none" opacity="0.95">
    <path d="M67.2 20V87C67.2 122 80 150 122 170"/>
    <path d="M444.8 20V87C444.8 122 432 150 390 170"/>
    <path d="M67.2 492V425C67.2 390 80 362 122 342"/>
    <path d="M444.8 492V425C444.8 390 432 362 390 342"/>
    <path d="M161.6 114.4C161.6 165.2 202.8 206.4 253.6 206.4C304.4 206.4 345.6 165.2 345.6 114.4"/>
    <path d="M161.6 397.6C161.6 346.8 202.8 305.6 253.6 305.6C304.4 305.6 345.6 346.8 345.6 397.6"/>
    <circle cx="256" cy="165.6" r="30"/>
    <circle cx="256" cy="346.4" r="30"/>
    <circle cx="256" cy="256" r="40"/>
    <rect x="217" y="20" width="78" height="58" rx="2"/>
    <rect x="217" y="434" width="78" height="58" rx="2"/>
    <circle cx="256" cy="57" r="6"/>
    <circle cx="256" cy="455" r="6"/>
    <path d="M238 57H274"/>
    <path d="M238 455H274"/>
    <path d="M233 78C233 91 243 101 256 101C269 101 279 91 279 78"/>
    <path d="M233 434C233 421 243 411 256 411C269 411 279 421 279 434"/>
  </g>
  <g stroke="#4A4550" stroke-width="2" fill="none">
    <circle cx="162" cy="162" r="17"/>
    <path d="M145 162H179M162 145V179"/>
    <circle cx="162" cy="256" r="17"/>
    <path d="M145 256H179M162 239V273"/>
    <circle cx="350" cy="350" r="17"/>
    <path d="M333 350H367M350 333V367"/>
  </g>
</svg>
